HIERARCHY
ROOT ui
{
	 OFFSET 0 0 0
	 CHANNELS 3 XPosition YPosition Z Position
	 EndSite
	 {
	 OFFSET 0 -1 0
	 }
}
ROOT li
{
	 OFFSET 0 0 0
	 CHANNELS 3 XPosition YPosition Z Position
	 EndSite
	 {
	 OFFSET 0 -1 0
	 }
}
ROOT ul
{
	 OFFSET 0 0 0
	 CHANNELS 3 XPosition YPosition Z Position
	 EndSite
	 {
	 OFFSET 0 -1 0
	 }
}
ROOT ll
{
	 OFFSET 0 0 0
	 CHANNELS 3 XPosition YPosition Z Position
	 EndSite
	 {
	 OFFSET 0 -1 0
	 }
}
ROOT tt
{
	 OFFSET 0 0 0
	 CHANNELS 3 XPosition YPosition Z Position
	 EndSite
	 {
	 OFFSET 0 -1 0
	 }
}
ROOT tb
{
	 OFFSET 0 0 0
	 CHANNELS 3 XPosition YPosition Z Position
	 EndSite
	 {
	 OFFSET 0 -1 0
	 }
}
ROOT td
{
	 OFFSET 0 0 0
	 CHANNELS 3 XPosition YPosition Z Position
	 EndSite
	 {
	 OFFSET 0 -1 0
	 }
}
ROOT v
{
	 OFFSET 0 0 0
	 CHANNELS 3 XPosition YPosition Z Position
	 EndSite
	 {
	 OFFSET 0 -1 0
	 }
}
ROOT bn
{
	 OFFSET 0 0 0
	 CHANNELS 3 XPosition YPosition Z Position
	 EndSite
	 {
	 OFFSET 0 -1 0
	 }
}
MOTION
Frames: 16
Frame Time: 0.002
-0.015994479179382324	-0.0025882039070129394	0		0.44149710083007815	-2.4431083984375	0		-0.973343994140625	-0.021428585052490234	0		-0.5158698120117188	-2.53595556640625	0		1.660467529296875	-0.48968182373046876	0		3.30361572265625	-0.19924395751953125	0		4.444552734375	-0.13892356872558595	0		5.80262158203125	0.22044000244140624	0		-0.1548207244873047	5.90287841796875	0		
0.013744404792785644	0.0010481079816818237	0		0.4741138610839844	-2.4385390625	0		-0.9605078735351562	-0.010505072593688965	0		-0.5332810668945313	-2.532642578125	0		1.645570068359375	-0.4575202026367188	0		3.3238828125	-0.1566578369140625	0		4.45623046875	-0.13928634643554688	0		5.81055419921875	0.23705534362792968	0		-0.1557920684814453	5.90395068359375	0		
0.008498580932617187	0.005164187908172607	0		0.45996002197265623	-2.417326904296875	0		-0.9658514404296875	-0.01333060073852539	0		-0.5225953369140625	-2.52271630859375	0		1.647629150390625	-0.42960012817382814	0		3.270327392578125	-0.17407034301757812	0		4.4349501953125	-0.13721145629882814	0		5.80615625	0.22881529235839843	0		-0.17285337829589845	5.896244140625	0		
0.009102226257324219	-0.0028030080795288085	0		0.4643427429199219	-2.43037744140625	0		-0.97612255859375	-0.012084797859191894	0		-0.550146484375	-2.530260498046875	0		1.6605386962890625	-0.4138388671875	0		3.302264892578125	-0.15767483520507813	0		4.4305732421875	-0.14338497924804688	0		5.80588525390625	0.22850006103515624	0		-0.17178526306152345	5.89528759765625	0		
-0.017160545349121092	-0.0023947150707244874	0		0.4471878662109375	-2.41112646484375	0		-0.9782623291015625	-0.0029494009017944334	0		-0.5254937744140625	-2.5245302734375	0		1.6734693603515625	-0.39808456420898436	0		3.2749501953125	-0.16046528625488282	0		4.41118896484375	-0.15135984802246094	0		5.80076123046875	0.23723870849609374	0		-0.20673556518554687	5.890833984375	0		
6.093620061874389E-4	-0.0016026020050048829	0		0.4238866271972656	-2.403789306640625	0		-0.9734630737304687	8.888400346040725E-5	0		-0.5598295288085937	-2.518973876953125	0		1.68742431640625	-0.3823496704101563	0		3.27399267578125	-0.1396260986328125	0		4.41503466796875	-0.144664794921875	0		5.81851904296875	0.235645751953125	0		-0.20658767700195313	5.8908916015625	0		
0.012434687614440918	0.0012712479829788208	0		0.45453610229492186	-2.4022119140625	0		-0.9696227416992188	0.004140430927276611	0		-0.5561567993164063	-2.514949951171875	0		1.6973515625	-0.37056072998046874	0		3.275597900390625	-0.1518273468017578	0		4.41480908203125	-0.14491493225097657	0		5.82731787109375	0.2351751251220703	0		-0.17233006286621094	5.89646826171875	0		
0.003264194965362549	0.00244213604927063	0		0.4292668151855469	-2.39684326171875	0		-0.96980810546875	0.004247944831848144	0		-0.567392333984375	-2.506714111328125	0		1.6893836669921876	-0.35351580810546873	0		3.298669677734375	-0.13332565307617186	0		4.41051513671875	-0.15210203552246093	0		5.82640283203125	0.2528505706787109	0		-0.038817253112792965	5.917634765625	0		
0.003111155033111572	0.002487204074859619	0		0.48288601684570315	-2.402593994140625	0		-0.9777607421875	0.01846683692932129	0		-0.5677032470703125	-2.506633056640625	0		1.67532373046875	-0.3453781433105469	0		3.268397216796875	-0.14105964660644532	0		4.402453125	-0.14522105407714844	0		5.826265625	0.25252915954589844	0		-0.0385980110168457	5.91768212890625	0		
-0.022119878768920898	-0.005107624053955078	0		0.428699951171875	-2.396803955078125	0		-0.9687796020507813	0.025442665100097656	0		-0.5700010986328125	-2.5085234375	0		1.6751837158203124	-0.34543170166015624	0		3.268269287109375	-0.14120863342285156	0		4.39521142578125	-0.1533369598388672	0		5.8310322265625	0.24315634155273438	0		-0.2057607421875	5.8911240234375	0		
0.007836546897888184	-0.0024891190528869627	0		0.459505859375	-2.395225341796875	0		-0.9688614501953124	0.025546344757080078	0		-0.5661556396484375	-2.50350048828125	0		1.678137939453125	-0.3415219421386719	0		3.26103515625	-0.15124433898925782	0		4.3880048828125	-0.16143696594238283	0		5.830962890625	0.24287327575683593	0		-0.189366943359375	5.90095361328125	0		
0.011849550247192383	0.001503450036048889	0		0.4384788818359375	-2.384897216796875	0		-0.9438779907226562	0.027288982391357422	0		-0.5602489624023438	-2.497506103515625	0		1.6780753173828125	-0.3415614013671875	0		3.264357421875	-0.12541520690917968	0		4.38306787109375	-0.15355140686035157	0		5.8352919921875	0.26754940795898435	0		-0.15500961303710936	5.90652392578125	0		
0.007790108203887939	-0.002384066104888916	0		0.49227740478515625	-2.390645751953125	0		-0.9676011352539062	0.046737159729003906	0		-0.5624068603515625	-2.4993935546875	0		1.673143310546875	-0.33552032470703125	0		3.244974609375	-0.15124891662597656	0		4.3789716796875	-0.1596612548828125	0		5.83507177734375	0.25130877685546876	0		-0.17085401916503906	5.8968193359375	0		
0.0029042890071868895	0.0027474770545959475	0		0.4174886474609375	-2.3705224609375	0		-0.9675577392578125	0.046843013763427734	0		-0.5384435424804688	-2.49665576171875	0		1.66911083984375	-0.33948153686523436	0		3.264079345703125	-0.1466197967529297	0		4.362919921875	-0.1655767059326172	0		5.835125	0.2510911254882813	0		-0.037212486267089846	5.91795361328125	0		
-6.978800147771836E-5	-0.0011422430276870727	0		0.4454359130859375	-2.372882080078125	0		-0.9715151977539063	0.0440104866027832	0		-0.5774510498046875	-2.494997802734375	0		1.6691796875	-0.3394887390136719	0		3.264156494140625	-0.14669723510742189	0		4.37498046875	-0.166877197265625	0		5.8352197265625	0.25090048217773436	0		-0.20427279663085937	5.89145654296875	0		
0.008039306640625	-0.0021848630905151366	0		0.4294075927734375	-2.376591796875	0		-0.9632874755859375	0.05100639343261719	0		-0.5645166015625	-2.501089599609375	0		1.664378662109375	-0.3334099426269531	0		3.263465087890625	-0.1337422332763672	0		4.367982421875	-0.1748773651123047	0		5.84458740234375	0.26660488891601564	0		-0.20390936279296876	5.8915390625	0		
